<?xml version="1.0" encoding="UTF-8"?>
<svg id="Layer_1" data-name="Layer 1" xmlns="http://www.w3.org/2000/svg" version="1.1" viewBox="0 0 2114.7 2114.7">
  <defs>
    <style>
      .cls-1 {
        fill: #282826;
      }

      .cls-1, .cls-2, .cls-3, .cls-4, .cls-5, .cls-6, .cls-7, .cls-8, .cls-9, .cls-10 {
        stroke-width: 0px;
      }

      .cls-2 {
        fill: #e8450c;
      }

      .cls-11 {
        fill: #e9a950;
      }

      .cls-11, .cls-12, .cls-13, .cls-14 {
        stroke-miterlimit: 10;
      }

      .cls-11, .cls-13 {
        stroke: #2b2b2b;
        stroke-width: 35.1px;
      }

      .cls-12 {
        fill: #ff69ad;
      }

      .cls-12, .cls-14 {
        stroke: #282826;
        stroke-width: 24.6px;
      }

      .cls-13, .cls-14 {
        fill: none;
      }

      .cls-3 {
        fill: #0cbee8;
      }

      .cls-4 {
        fill: #8aba15;
      }

      .cls-5 {
        fill: #d64386;
      }

      .cls-6 {
        fill: #e8d20c;
      }

      .cls-7 {
        fill: #c43b80;
      }

      .cls-8 {
        fill: #c9883a;
      }

      .cls-9 {
        fill: #fff;
      }

      .cls-10 {
        fill: #c2fffc;
      }
    </style>
  </defs>
  <g>
    <path class="cls-11" d="M1795.5,917.8c-17.5-87-49.9-168.6-94.6-242-111.2-182.6-297.9-314.2-516.7-351.3-41.3-7-83.6-10.6-126.9-10.6s-81.1,3.3-120.2,9.6c-201.1,32.2-375.5,144.1-490,302.2-35.9,49.5-65.9,103.7-89,161.3-34.7,86.5-53.7,180.9-53.7,279.8s11.6,151.3,33.1,221.3c33.3,108.3,90.2,206.1,164.9,287.5,137.6,150,335.3,244,555,244,415.8,0,752.9-337.1,752.9-752.9,0-51-5.1-100.8-14.7-149ZM1292.9,1066.7c0,130.1-105.4,235.5-235.5,235.5s-235.5-105.4-235.5-235.5,105.4-235.6,235.5-235.6,235.5,105.5,235.5,235.6Z"/>
    <path class="cls-8" d="M1795.5,917.8c-17.5-87-49.9-168.6-94.6-242-84.7-139.1-213.1-248.5-366.2-309.2,113.1,63.5,208.2,155.3,275.6,266,44.6,73.4,77.1,155,94.6,242,9.7,48.1,14.7,98,14.7,149,0,415.8-337.1,752.9-752.9,752.9s-191.8-18.8-277.7-52.9c108.9,61.2,234.5,96.1,368.3,96.1,415.8,0,752.9-337.1,752.9-752.9,0-51-5.1-100.8-14.7-149Z"/>
    <path class="cls-13" d="M1795.5,917.8c-17.5-87-49.9-168.6-94.6-242-111.2-182.6-297.9-314.2-516.7-351.3-41.3-7-83.6-10.6-126.9-10.6s-81.1,3.3-120.2,9.6c-201.1,32.2-375.5,144.1-490,302.2-35.9,49.5-65.9,103.7-89,161.3-34.7,86.5-53.7,180.9-53.7,279.8s11.6,151.3,33.1,221.3c33.3,108.3,90.2,206.1,164.9,287.5,137.6,150,335.3,244,555,244,415.8,0,752.9-337.1,752.9-752.9,0-51-5.1-100.8-14.7-149ZM1292.9,1066.7c0,130.1-105.4,235.5-235.5,235.5s-235.5-105.4-235.5-235.5,105.4-235.6,235.5-235.6,235.5,105.5,235.5,235.6Z"/>
    <g>
      <path class="cls-12" d="M1774.1,758.2c-22.7-36.2-47.4-62.5-73.2-82.4-87.1-67.1-186.2-60.6-258.7-109.6-83.4-56.4-134.1-183.9-258-241.7-43.6-20.3-96.2-32-162.5-28.9-30,1.4-57.9,11.8-84.5,27.8-89.6,54-163.4,171.3-244.5,219.3-82.4,48.7-161.6,6.7-245.5,82.9-23.2,21.1-46.8,51.2-70.9,94.9-12,21.7-17.3,43.8-18.1,66.4-3.3,86.1,58.1,178.9,58.1,280.3s-58.6,139.9-78.8,220.9c-10.6,42.4-10.6,89.4,13.7,145.1,38.7,88.5,92.9,126.1,151.2,142.4,83.5,23.3,175.4,2.9,241.9,26,120.5,41.7,202.3,170.8,348.5,174.9,200,5.6,183.3-156.8,300.8-244,94.2-69.9,224.7-44.7,274.7-152.3,42-90.3,31-171.4,31-277.6s67.2-120.8,96.2-184.8c19-41.9,21.7-91-21.4-159.6ZM1057.4,1302.3c-130.1,0-235.5-105.4-235.5-235.5s105.4-235.6,235.5-235.6,235.5,105.5,235.5,235.6c0,130.1-105.4,235.5-235.5,235.5Z"/>
      <path class="cls-5" d="M1774.1,758.2c-22.7-36.2-47.4-62.5-73.2-82.4-87.1-67.1-186.2-60.6-258.7-109.6-39.7-26.8-72-69.8-108.3-113.7,0,0,0,0,0,0-3.7-4.5-7.6-9.1-11.4-13.6-.7-.8-1.4-1.6-2.1-2.4-1.5-1.8-3.1-3.6-4.7-5.4-1.1-1.3-2.2-2.5-3.3-3.8-1.3-1.5-2.7-3-4-4.5-1.3-1.5-2.7-3-4-4.5-1.2-1.3-2.4-2.7-3.7-4-1.5-1.6-3-3.2-4.5-4.9-1.2-1.2-2.3-2.5-3.5-3.7-1.6-1.7-3.2-3.4-4.9-5.1-1.1-1.1-2.2-2.3-3.4-3.4-1.7-1.7-3.5-3.5-5.2-5.2-1.1-1.1-2.2-2.1-3.3-3.2-1.8-1.7-3.7-3.5-5.5-5.2-1.1-1-2.2-2-3.3-3-1.9-1.7-3.9-3.5-5.8-5.2-1.1-1-2.2-1.9-3.3-2.9-2-1.7-4.1-3.4-6.1-5.1-1.1-.9-2.2-1.8-3.3-2.7-2.1-1.7-4.3-3.4-6.5-5-1.1-.8-2.2-1.7-3.3-2.5-2.2-1.7-4.5-3.3-6.8-4.9-1.1-.8-2.2-1.6-3.3-2.4-2.4-1.6-4.8-3.2-7.2-4.8-1.1-.7-2.2-1.4-3.3-2.1-2.5-1.6-5.1-3.2-7.8-4.7-1.1-.6-2.1-1.3-3.2-1.9-2.9-1.6-5.8-3.2-8.7-4.8-.9-.5-1.7-1-2.6-1.4-3.8-2-7.8-3.9-11.8-5.8-43.6-20.3-96.2-32-162.5-28.9-29.7,1.4-57.4,11.6-83.8,27.4,0,0,0,0-.1,0h0c-.2.1-.4.2-.6.4-89.6,54-163.4,171.3-244.5,219.3-82.4,48.7-161.6,6.7-245.5,82.9-23.2,21.1-46.8,51.2-70.9,94.9-12,21.7-17.3,43.8-18.1,66.4-3.3,86.1,58.1,178.9,58.1,280.3s-58.6,139.9-78.8,220.9c-10.6,42.4-10.6,89.4,13.7,145.1,38.7,88.5,92.9,126.1,151.2,142.4,2.7.8,5.4,1.5,8.1,2.1.7.2,1.3.3,2,.5,2,.5,4.1,1,6.2,1.4.8.2,1.6.3,2.4.5,1.9.4,3.9.8,5.8,1.1.8.2,1.7.3,2.6.4,1.9.3,3.8.7,5.7,1,.9.1,1.8.3,2.7.4,1.9.3,3.7.6,5.6.8.9.1,1.8.2,2.7.3,1.9.2,3.7.5,5.6.7.9.1,1.8.2,2.7.3,1.9.2,3.7.4,5.6.6.9,0,1.8.2,2.6.2,1.9.2,3.8.3,5.7.5.9,0,1.7.1,2.6.2,1.9.1,3.8.3,5.7.4.9,0,1.7.1,2.6.2,1.9.1,3.8.2,5.7.3.9,0,1.8,0,2.7.1,1.9,0,3.7.2,5.6.2.9,0,1.9,0,2.8.1,1.8,0,3.5.1,5.3.2,1.1,0,2.1,0,3.2,0,1.5,0,3.1,0,4.6.1,1.4,0,2.8,0,4.1,0,1,0,1.9,0,2.9,0,6.6.1,13.2.2,19.7.4,0,0,0,0,0,0,39.6.7,77.2,1.8,108.9,12.8,120.5,41.7,202.3,170.8,348.5,174.9,200,5.6,183.3-156.8,300.8-244,94.2-69.9,224.7-44.7,274.7-152.3,42-90.3,31-171.4,31-277.6s67.2-120.8,96.2-184.8c19-41.9,21.7-91-21.4-159.6ZM1646.5,870.8c-39.9,47.6-119.7,100.4-119.7,165,0,93.1,78.2,187.2,39.7,266.4-45.8,94.2-208.1,55.8-294.6,117.1-107.7,76.4-18.8,244.5-202.3,239.6-134.1-3.6-232.2-193.4-380.6-148.7-186.1,56.1-321.7-63.7-295.7-186.7,15.8-74.9,139.8-143.8,139.8-212.9s-104.9-126.1-124-257c-3-20.4-11.7-122,69-189.8,132.9-111.8,249.1,5.2,323-67.9,81.8-81,136-384.6,388.5-190.5,78.9,60.6,167.2,199.3,248.8,255.6,61.6,42.5,138.1,32.2,172.2,48.8,90.7,44,69.1,121.3,36,160.9Z"/>
      <path class="cls-5" d="M1039,746.7c-174.9,0-316.7,138.7-316.7,309.7s141.8,309.7,316.7,309.7,316.7-138.7,316.7-309.7-141.8-309.7-316.7-309.7ZM1057.4,1302.3c-130.1,0-235.5-105.4-235.5-235.5s105.4-235.6,235.5-235.6,235.5,105.5,235.5,235.6c0,130.1-105.4,235.5-235.5,235.5Z"/>
      <path class="cls-14" d="M1774.1,758.2c-22.7-36.2-47.4-62.5-73.2-82.4-87.1-67.1-186.2-60.6-258.7-109.6-83.4-56.4-134.1-183.9-258-241.7-43.6-20.3-96.2-32-162.5-28.9-30,1.4-57.9,11.8-84.5,27.8-89.6,54-163.4,171.3-244.5,219.3-82.4,48.7-161.6,6.7-245.5,82.9-23.2,21.1-46.8,51.2-70.9,94.9-12,21.7-17.3,43.8-18.1,66.4-3.3,86.1,58.1,178.9,58.1,280.3s-58.6,139.9-78.8,220.9c-10.6,42.4-10.6,89.4,13.7,145.1,38.7,88.5,92.9,126.1,151.2,142.4,83.5,23.3,175.4,2.9,241.9,26,120.5,41.7,202.3,170.8,348.5,174.9,200,5.6,183.3-156.8,300.8-244,94.2-69.9,224.7-44.7,274.7-152.3,42-90.3,31-171.4,31-277.6s67.2-120.8,96.2-184.8c19-41.9,21.7-91-21.4-159.6ZM1057.4,1302.3c-130.1,0-235.5-105.4-235.5-235.5s105.4-235.6,235.5-235.6,235.5,105.5,235.5,235.6c0,130.1-105.4,235.5-235.5,235.5Z"/>
    </g>
    <g>
      <path class="cls-9" d="M1203.7,1345.2l-.6-1.2c-5-10.3-1.2-22.6,8.8-28.3,78.5-44.8,123.3-117.7,133.4-217,5.6-55.6-1.4-105.1-6.5-131.2-2.2-11.1,4.5-21.9,15.4-25l1.3-.4c12.2-3.4,24.7,4.2,27.2,16.6,5.8,29.2,13.4,83.2,7.2,144.4-11.5,113.1-65.1,199.5-155.7,251.4-10.9,6.2-24.8,2-30.3-9.3Z"/>
      <path class="cls-9" d="M1292.8,883.3c-2.9-4.3-6.2-8.7-9.4-12.9-7-9.1-5.8-22,2.8-29.6h0c9.4-8.2,23.8-6.9,31.4,2.9,3.5,4.6,7.3,9.7,10.9,14.9,7.7,11.2,3.4,26.6-9,32.1h0c-9.5,4.2-20.7,1.1-26.6-7.5Z"/>
    </g>
  </g>
  <g>
    <g>
      <path class="cls-7" d="M914.8,701.9h-97.8c-13.1,0-23.9-10.8-23.9-23.9h0c0-13.1,10.8-23.9,23.9-23.9h97.8c13.1,0,23.9,10.8,23.9,23.9h0c0,13.1-10.8,23.9-23.9,23.9Z"/>
      <path class="cls-7" d="M1190.5,529.1h-97.8c-13.1,0-23.9-10.8-23.9-23.9h0c0-13.1,10.8-23.9,23.9-23.9h97.8c13.1,0,23.9,10.8,23.9,23.9h0c0,13.1-10.8,23.9-23.9,23.9Z"/>
      <path class="cls-7" d="M1243.6,672.1l-82.6,52.3c-11.1,7-25.9,3.7-33-7.4h0c-7-11.1-3.7-25.9,7.4-33l82.6-52.3c11.1-7,25.9-3.7,33,7.4h0c7,11.1,3.7,25.9-7.4,33Z"/>
      <path class="cls-7" d="M606.6,784.4l-82.6,52.3c-11.1,7-25.9,3.7-33-7.4h0c-7-11.1-3.7-25.9,7.4-33l82.6-52.3c11.1-7,25.9-3.7,33,7.4h0c7,11.1,3.7,25.9-7.4,33Z"/>
      <path class="cls-7" d="M1635,1064.5l-82.6,52.3c-11.1,7-25.9,3.7-33-7.4h0c-7-11.1-3.7-25.9,7.4-33l82.6-52.3c11.1-7,25.9-3.7,33,7.4h0c7,11.1,3.7,25.9-7.4,33Z"/>
      <path class="cls-7" d="M1015.6,1492.6l-84.7-48.9c-11.4-6.6-15.3-21.3-8.7-32.6h0c6.6-11.4,21.3-15.3,32.6-8.7l84.7,48.9c11.4,6.6,15.3,21.3,8.7,32.6h0c-6.6,11.4-21.3,15.3-32.6,8.7Z"/>
      <path class="cls-7" d="M772.4,923.2l-93.9,27.3c-12.6,3.7-26-3.6-29.6-16.3h0c-3.7-12.6,3.6-26,16.3-29.6l93.9-27.3c12.6-3.7,26,3.6,29.6,16.3h0c3.7,12.6-3.6,26-16.3,29.6Z"/>
      <path class="cls-7" d="M572.2,1252.4l-69.2-69.2c-9.3-9.3-9.3-24.5,0-33.8h0c9.3-9.3,24.5-9.3,33.8,0l69.2,69.2c9.3,9.3,9.3,24.5,0,33.8h0c-9.3,9.3-24.5,9.3-33.8,0Z"/>
      <path class="cls-7" d="M1555.7,1352.1l-93.7-28c-12.6-3.8-19.8-17.1-16.1-29.7h0c3.8-12.6,17.1-19.8,29.7-16.1l93.7,28c12.6,3.8,19.8,17.1,16.1,29.7h0c-3.8,12.6-17.1,19.8-29.7,16.1Z"/>
      <path class="cls-7" d="M674.2,1471.3h-97.8c-13.1,0-23.9-10.8-23.9-23.9h0c0-13.1,10.8-23.9,23.9-23.9h97.8c13.1,0,23.9,10.8,23.9,23.9h0c0,13.1-10.8,23.9-23.9,23.9Z"/>
      <path class="cls-7" d="M1541.1,864.6l-79-57.7c-10.6-7.8-12.9-22.8-5.2-33.4h0c7.8-10.6,22.8-12.9,33.4-5.2l79,57.7c10.6,7.8,12.9,22.8,5.2,33.4h0c-7.8,10.6-22.8,12.9-33.4,5.2Z"/>
      <path class="cls-7" d="M1153.3,1563.6l60.9-76.5c8.2-10.3,23.3-12,33.6-3.8h0c10.3,8.2,12,23.3,3.8,33.6l-60.9,76.5c-8.2,10.3-23.3,12-33.6,3.8h0c-10.3-8.2-12-23.3-3.8-33.6Z"/>
    </g>
    <g>
      <g>
        <path class="cls-4" d="M885.1,687.9h-97.8c-13.1,0-23.9-10.8-23.9-23.9h0c0-13.1,10.8-23.9,23.9-23.9h97.8c13.1,0,23.9,10.8,23.9,23.9h0c0,13.1-10.8,23.9-23.9,23.9Z"/>
        <path class="cls-1" d="M885.1,694.9h-97.8c-17,0-30.9-13.9-30.9-30.9s13.9-30.9,30.9-30.9h97.8c17,0,30.9,13.9,30.9,30.9,0,17-13.9,30.9-30.9,30.9ZM787.3,647.1c-9.3,0-16.9,7.6-16.9,16.9s7.6,16.9,16.9,16.9h97.8c9.3,0,16.9-7.6,16.9-16.9s-7.6-16.9-16.9-16.9h-97.8Z"/>
      </g>
      <g>
        <path class="cls-6" d="M1160.7,515.1h-97.8c-13.1,0-23.9-10.8-23.9-23.9h0c0-13.1,10.8-23.9,23.9-23.9h97.8c13.1,0,23.9,10.8,23.9,23.9h0c0,13.1-10.8,23.9-23.9,23.9Z"/>
        <path class="cls-1" d="M1160.7,522.1h-97.8c-17.1,0-30.9-13.9-30.9-30.9s13.9-30.9,30.9-30.9h97.8c17.1,0,30.9,13.9,30.9,30.9s-13.9,30.9-30.9,30.9ZM1062.9,474.3c-9.3,0-16.9,7.6-16.9,16.9s7.6,16.9,16.9,16.9h97.8c9.3,0,16.9-7.6,16.9-16.9s-7.6-16.9-16.9-16.9h-97.8Z"/>
      </g>
      <g>
        <path class="cls-3" d="M1213.9,658l-82.6,52.3c-11.1,7-25.9,3.7-33-7.4h0c-7-11.1-3.7-25.9,7.4-33l82.6-52.3c11.1-7,25.9-3.7,33,7.4h0c7,11.1,3.7,25.9-7.4,33Z"/>
        <path class="cls-1" d="M1118.6,721c-2.3,0-4.6-.3-6.9-.8-8.1-1.8-14.9-6.6-19.4-13.6-9.1-14.4-4.8-33.5,9.6-42.7l82.6-52.3c14.4-9.1,33.5-4.8,42.7,9.6,4.4,7,5.8,15.2,4,23.3-1.8,8.1-6.6,14.9-13.6,19.4l-82.6,52.3c-5,3.2-10.6,4.8-16.4,4.8ZM1201.1,620.9c-3.1,0-6.2.8-9,2.6l-82.6,52.3c-7.9,5-10.2,15.4-5.2,23.3,2.4,3.8,6.1,6.4,10.6,7.4,4.4,1,8.9.2,12.7-2.2l82.6-52.3c3.8-2.4,6.4-6.1,7.4-10.6s.2-8.9-2.2-12.7c-3.2-5.1-8.7-7.8-14.3-7.8Z"/>
      </g>
      <g>
        <path class="cls-2" d="M576.8,770.3l-82.6,52.3c-11.1,7-25.9,3.7-33-7.4h0c-7-11.1-3.7-25.9,7.4-33l82.6-52.3c11.1-7,25.9-3.7,33,7.4h0c7,11.1,3.7,25.9-7.4,33Z"/>
        <path class="cls-1" d="M481.4,833.3c-10.3,0-20.3-5.1-26.2-14.4-9.1-14.4-4.8-33.5,9.6-42.7l82.6-52.3c14.4-9.1,33.5-4.8,42.7,9.6,4.4,7,5.8,15.2,4,23.3s-6.6,14.9-13.6,19.4l-82.6,52.3c-5.1,3.2-10.8,4.8-16.5,4.8ZM564,733.2c-3.1,0-6.2.8-9,2.6l-82.6,52.3c-7.9,5-10.2,15.4-5.2,23.3,5,7.9,15.4,10.2,23.3,5.2l82.6-52.3c3.8-2.4,6.4-6.1,7.4-10.6s.2-8.9-2.2-12.7c-3.2-5.1-8.7-7.8-14.3-7.8Z"/>
      </g>
      <g>
        <path class="cls-6" d="M1605.3,1050.5l-82.6,52.3c-11.1,7-25.9,3.7-33-7.4h0c-7-11.1-3.7-25.9,7.4-33l82.6-52.3c11.1-7,25.9-3.7,33,7.4h0c7,11.1,3.7,25.9-7.4,33Z"/>
        <path class="cls-1" d="M1509.9,1113.5c-10.3,0-20.3-5.1-26.2-14.4-4.4-7-5.8-15.2-4-23.3,1.8-8.1,6.6-14.9,13.6-19.4l82.6-52.3c14.4-9.1,33.5-4.8,42.7,9.6,9.1,14.4,4.8,33.5-9.6,42.7l-3.8-5.9,3.8,5.9-82.6,52.3c-5.1,3.2-10.8,4.8-16.5,4.8ZM1592.4,1013.4c-3.2,0-6.2.9-8.9,2.6l-82.6,52.3c-3.8,2.4-6.4,6.1-7.4,10.6-1,4.4-.2,8.9,2.2,12.7,5,7.9,15.4,10.2,23.3,5.2l82.6-52.3c7.9-5,10.2-15.4,5.2-23.3-2.4-3.8-6.1-6.4-10.6-7.4-1.3-.3-2.5-.4-3.8-.4Z"/>
      </g>
      <g>
        <path class="cls-3" d="M985.8,1478.5l-84.7-48.9c-11.4-6.6-15.3-21.3-8.7-32.6h0c6.6-11.4,21.3-15.3,32.6-8.7l84.7,48.9c11.4,6.6,15.3,21.3,8.7,32.6h0c-6.6,11.4-21.3,15.3-32.6,8.7Z"/>
        <path class="cls-1" d="M997.7,1488.7c-5.2,0-10.5-1.3-15.4-4.1h0l-84.7-48.9c-7.1-4.1-12.2-10.8-14.4-18.8-2.1-8-1.1-16.3,3.1-23.5,8.5-14.8,27.5-19.8,42.2-11.3l84.7,48.9c7.1,4.1,12.2,10.8,14.4,18.8,2.1,8,1.1,16.3-3.1,23.5-5.7,9.9-16.1,15.5-26.8,15.5ZM989.3,1472.4c8.1,4.7,18.4,1.9,23.1-6.2,2.2-3.9,2.8-8.4,1.7-12.8-1.2-4.4-4-8-7.8-10.3l-84.7-48.9c-8.1-4.7-18.4-1.9-23.1,6.2-2.2,3.9-2.8,8.4-1.7,12.8,1.2,4.4,4,8,7.8,10.3l84.7,48.9Z"/>
      </g>
      <g>
        <path class="cls-6" d="M742.7,909.1l-93.9,27.3c-12.6,3.7-26-3.6-29.6-16.3h0c-3.7-12.6,3.6-26,16.3-29.6l93.9-27.3c12.6-3.7,26,3.6,29.6,16.3h0c3.7,12.6-3.6,26-16.3,29.6Z"/>
        <path class="cls-1" d="M642.1,944.4c-5.1,0-10.2-1.3-14.9-3.8-7.3-4-12.5-10.5-14.8-18.4-2.3-7.9-1.4-16.3,2.6-23.5,4-7.3,10.5-12.5,18.4-14.8l93.9-27.3c16.4-4.8,33.6,4.7,38.3,21,4.8,16.4-4.7,33.6-21,38.3l-93.9,27.3c-2.8.8-5.7,1.2-8.6,1.2ZM736,869.3c-1.6,0-3.1.2-4.7.7l-93.9,27.3c-4.3,1.3-7.9,4.1-10,8.1-2.2,4-2.7,8.5-1.4,12.8,1.3,4.3,4.1,7.9,8.1,10.1,4,2.2,8.5,2.7,12.8,1.4l93.9-27.3c8.9-2.6,14.1-12,11.5-20.9-2.1-7.4-8.9-12.2-16.2-12.2Z"/>
      </g>
      <g>
        <path class="cls-4" d="M542.4,1238.4l-69.2-69.2c-9.3-9.3-9.3-24.5,0-33.8h0c9.3-9.3,24.5-9.3,33.8,0l69.2,69.2c9.3,9.3,9.3,24.5,0,33.8h0c-9.3,9.3-24.5,9.3-33.8,0Z"/>
        <path class="cls-1" d="M559.3,1252.4c-8.3,0-16-3.2-21.9-9l-69.2-69.2c-5.8-5.8-9-13.6-9-21.9s3.2-16,9-21.9c5.8-5.8,13.6-9,21.9-9s16,3.2,21.9,9l69.2,69.2c5.8,5.8,9,13.6,9,21.9s-3.2,16-9,21.9c-5.8,5.8-13.6,9-21.9,9ZM490.2,1135.5c-4.5,0-8.8,1.7-11.9,4.9s-4.9,7.4-4.9,11.9,1.7,8.8,4.9,11.9l69.2,69.2c3.2,3.2,7.4,4.9,11.9,4.9s8.8-1.7,11.9-4.9c3.2-3.2,4.9-7.4,4.9-11.9s-1.7-8.8-4.9-11.9l-69.2-69.2c-3.2-3.2-7.4-4.9-11.9-4.9Z"/>
      </g>
      <g>
        <path class="cls-2" d="M1526,1338l-93.7-28c-12.6-3.8-19.8-17.1-16.1-29.7h0c3.8-12.6,17.1-19.8,29.7-16.1l93.7,28c12.6,3.8,19.8,17.1,16.1,29.7h0c-3.8,12.6-17.1,19.8-29.7,16.1Z"/>
        <path class="cls-1" d="M1532.8,1346.1c-3,0-5.9-.4-8.8-1.3l-93.7-28c-16.3-4.9-25.7-22.1-20.8-38.5,2.4-7.9,7.7-14.4,15-18.3,7.3-3.9,15.6-4.8,23.5-2.4l93.7,28c7.9,2.4,14.4,7.7,18.3,14.9,3.9,7.3,4.8,15.6,2.4,23.5-2.4,7.9-7.7,14.4-15,18.3-4.6,2.5-9.6,3.7-14.7,3.7ZM1439.1,1270.3c-2.8,0-5.5.7-8,2.1-4,2.2-6.9,5.7-8.2,10-2.7,8.9,2.4,18.3,11.3,21l93.7,28c4.3,1.3,8.8.8,12.8-1.3,4-2.2,6.9-5.7,8.2-10,1.3-4.3.8-8.9-1.3-12.8-2.2-4-5.7-6.9-10-8.2l-93.7-28c-1.6-.5-3.2-.7-4.8-.7Z"/>
      </g>
      <g>
        <path class="cls-2" d="M644.4,1457.3h-97.8c-13.1,0-23.9-10.8-23.9-23.9h0c0-13.1,10.8-23.9,23.9-23.9h97.8c13.1,0,23.9,10.8,23.9,23.9h0c0,13.1-10.8,23.9-23.9,23.9Z"/>
        <path class="cls-1" d="M644.4,1464.3h-97.8c-17,0-30.9-13.9-30.9-30.9s13.9-30.9,30.9-30.9h97.8c17,0,30.9,13.9,30.9,30.9s-13.9,30.9-30.9,30.9ZM546.6,1416.5c-9.3,0-16.9,7.6-16.9,16.9s7.6,16.9,16.9,16.9h97.8c9.3,0,16.9-7.6,16.9-16.9s-7.6-16.9-16.9-16.9h-97.8Z"/>
      </g>
      <g>
        <path class="cls-3" d="M1511.3,850.5l-79-57.7c-10.6-7.8-12.9-22.8-5.2-33.4h0c7.8-10.6,22.8-12.9,33.4-5.2l79,57.7c10.6,7.8,12.9,22.8,5.2,33.4h0c-7.8,10.6-22.8,12.9-33.4,5.2Z"/>
        <path class="cls-1" d="M1525.4,862.2c-6.3,0-12.7-1.9-18.2-5.9l-79-57.7c-6.6-4.9-11-12-12.3-20.2-1.3-8.2.7-16.3,5.6-23,4.9-6.6,12-11,20.2-12.3,8.2-1.3,16.3.7,23,5.6l79,57.7c13.8,10.1,16.8,29.4,6.7,43.2-6,8.3-15.5,12.7-25,12.7ZM1515.5,844.9c7.5,5.5,18.1,3.8,23.6-3.7,5.5-7.5,3.8-18.1-3.7-23.6l-79-57.7c-3.6-2.6-8.1-3.7-12.5-3-4.5.7-8.4,3.1-11,6.7-2.6,3.6-3.7,8.1-3,12.5.7,4.5,3.1,8.4,6.7,11l79,57.7Z"/>
      </g>
      <g>
        <path class="cls-4" d="M1123.6,1549.6l60.9-76.5c8.2-10.3,23.3-12,33.6-3.8h0c10.3,8.2,12,23.3,3.8,33.6l-60.9,76.5c-8.2,10.3-23.3,12-33.6,3.8h0c-10.3-8.2-12-23.3-3.8-33.6Z"/>
        <path class="cls-1" d="M1142.3,1595.4c-6.8,0-13.5-2.2-19.2-6.7-6.4-5.1-10.5-12.5-11.4-20.7-.9-8.2,1.4-16.3,6.5-22.7l60.9-76.5c5.1-6.4,12.5-10.5,20.7-11.4,8.2-.9,16.3,1.4,22.7,6.5,6.4,5.1,10.5,12.5,11.4,20.7.9,8.2-1.4,16.3-6.5,22.7l-60.9,76.5c-6.1,7.7-15.1,11.7-24.2,11.7ZM1203.3,1471.1c-.7,0-1.3,0-2,.1-4.5.5-8.5,2.7-11.3,6.2l-60.9,76.5c-2.8,3.5-4,7.9-3.5,12.4.5,4.5,2.7,8.5,6.2,11.3,3.5,2.8,7.9,4,12.4,3.5,4.5-.5,8.5-2.7,11.3-6.2l60.9-76.5c2.8-3.5,4-7.9,3.5-12.4-.5-4.5-2.7-8.5-6.2-11.3-3-2.4-6.6-3.6-10.5-3.6Z"/>
      </g>
    </g>
  </g>
  <g>
    <g>
      <circle class="cls-7" cx="946.6" cy="547.2" r="23.2"/>
      <circle class="cls-7" cx="712.5" cy="785.2" r="23.2"/>
      <circle class="cls-7" cx="479.2" cy="1356.5" r="23.2"/>
      <circle class="cls-7" cx="736.7" cy="1114.5" r="23.2"/>
      <circle class="cls-7" cx="850.7" cy="1310" r="23.2"/>
      <circle class="cls-7" cx="873.8" cy="1572.4" r="23.2"/>
      <circle class="cls-7" cx="1346.7" cy="1442.3" r="23.2"/>
      <circle class="cls-7" cx="1608.7" cy="1209.9" r="23.2"/>
      <circle class="cls-7" cx="1712.8" cy="885.6" r="23.2"/>
      <circle class="cls-7" cx="1373.4" cy="710.8" r="23.2"/>
      <circle class="cls-7" cx="1070.2" cy="398.8" r="23.2"/>
      <circle class="cls-7" cx="502.4" cy="990" r="23.2"/>
    </g>
    <g>
      <g>
        <circle class="cls-10" cx="932.2" cy="538.3" r="23.2"/>
        <path class="cls-1" d="M932.2,566.4c-15.5,0-28.1-12.6-28.1-28.1s12.6-28.1,28.1-28.1,28.1,12.6,28.1,28.1c0,15.5-12.6,28.1-28.1,28.1ZM932.2,520c-10.1,0-18.3,8.2-18.3,18.3s8.2,18.3,18.3,18.3,18.3-8.2,18.3-18.3c0-10.1-8.2-18.3-18.3-18.3Z"/>
      </g>
      <g>
        <circle class="cls-10" cx="698.1" cy="776.3" r="23.2"/>
        <path class="cls-1" d="M698.1,804.4c-15.5,0-28.1-12.6-28.1-28.1s12.6-28.1,28.1-28.1,28.1,12.6,28.1,28.1c0,15.5-12.6,28.1-28.1,28.1ZM698.1,757.9c-10.1,0-18.3,8.2-18.3,18.3s8.2,18.3,18.3,18.3,18.3-8.2,18.3-18.3c0-10.1-8.2-18.3-18.3-18.3Z"/>
      </g>
      <g>
        <circle class="cls-10" cx="464.8" cy="1347.6" r="23.2"/>
        <path class="cls-1" d="M464.8,1375.7c-15.5,0-28.1-12.6-28.1-28.1s12.6-28.1,28.1-28.1,28.1,12.6,28.1,28.1-12.6,28.1-28.1,28.1ZM464.8,1329.2c-10.1,0-18.3,8.2-18.3,18.3s8.2,18.3,18.3,18.3,18.3-8.2,18.3-18.3-8.2-18.3-18.3-18.3Z"/>
      </g>
      <g>
        <circle class="cls-10" cx="722.3" cy="1105.7" r="23.2"/>
        <path class="cls-1" d="M722.3,1133.7c-15.5,0-28.1-12.6-28.1-28.1s12.6-28.1,28.1-28.1,28.1,12.6,28.1,28.1-12.6,28.1-28.1,28.1ZM722.3,1087.3c-10.1,0-18.3,8.2-18.3,18.3s8.2,18.3,18.3,18.3,18.3-8.2,18.3-18.3-8.2-18.3-18.3-18.3Z"/>
      </g>
      <g>
        <circle class="cls-10" cx="836.2" cy="1301.1" r="23.2"/>
        <path class="cls-1" d="M836.2,1329.2c-15.5,0-28.1-12.6-28.1-28.1s12.6-28.1,28.1-28.1,28.1,12.6,28.1,28.1c0,15.5-12.6,28.1-28.1,28.1ZM836.2,1282.8c-10.1,0-18.3,8.2-18.3,18.3s8.2,18.3,18.3,18.3,18.3-8.2,18.3-18.3c0-10.1-8.2-18.3-18.3-18.3Z"/>
      </g>
      <g>
        <circle class="cls-10" cx="859.4" cy="1563.5" r="23.2"/>
        <path class="cls-1" d="M859.4,1591.6c-15.5,0-28.1-12.6-28.1-28.1s12.6-28.1,28.1-28.1,28.1,12.6,28.1,28.1-12.6,28.1-28.1,28.1ZM859.4,1545.2c-10.1,0-18.3,8.2-18.3,18.3s8.2,18.3,18.3,18.3,18.3-8.2,18.3-18.3c0-10.1-8.2-18.3-18.3-18.3Z"/>
      </g>
      <g>
        <circle class="cls-10" cx="1332.2" cy="1433.4" r="23.2"/>
        <path class="cls-1" d="M1332.3,1461.5c-15.5,0-28.1-12.6-28.1-28.1s12.6-28.1,28.1-28.1,28.1,12.6,28.1,28.1-12.6,28.1-28.1,28.1ZM1332.3,1415.1c-10.1,0-18.3,8.2-18.3,18.3s8.2,18.3,18.3,18.3,18.3-8.2,18.3-18.3-8.2-18.3-18.3-18.3Z"/>
      </g>
      <g>
        <circle class="cls-10" cx="1594.4" cy="1201" r="23.2"/>
        <path class="cls-1" d="M1594.3,1229.1c-15.5,0-28.1-12.6-28.1-28.1s12.6-28.1,28.1-28.1,28.1,12.6,28.1,28.1c0,15.5-12.6,28.1-28.1,28.1ZM1594.3,1182.6c-10.1,0-18.3,8.2-18.3,18.3s8.2,18.3,18.3,18.3,18.3-8.2,18.3-18.3-8.2-18.3-18.3-18.3Z"/>
      </g>
      <g>
        <circle class="cls-10" cx="1698.4" cy="876.6" r="23.2"/>
        <path class="cls-1" d="M1698.4,904.8c-15.5,0-28.1-12.6-28.1-28.1s12.6-28.1,28.1-28.1,28.1,12.6,28.1,28.1c0,15.5-12.6,28.1-28.1,28.1ZM1698.4,858.3c-10.1,0-18.3,8.2-18.3,18.3s8.2,18.3,18.3,18.3,18.3-8.2,18.3-18.3-8.2-18.3-18.3-18.3Z"/>
      </g>
      <g>
        <circle class="cls-10" cx="1359" cy="701.9" r="23.2"/>
        <path class="cls-1" d="M1359,730c-15.5,0-28.1-12.6-28.1-28.1s12.6-28.1,28.1-28.1,28.1,12.6,28.1,28.1c0,15.5-12.6,28.1-28.1,28.1ZM1359,683.6c-10.1,0-18.3,8.2-18.3,18.3s8.2,18.3,18.3,18.3,18.3-8.2,18.3-18.3c0-10.1-8.2-18.3-18.3-18.3Z"/>
      </g>
      <g>
        <circle class="cls-10" cx="1055.8" cy="389.9" r="23.2"/>
        <path class="cls-1" d="M1055.8,418c-15.5,0-28.1-12.6-28.1-28.1s12.6-28.1,28.1-28.1,28.1,12.6,28.1,28.1-12.6,28.1-28.1,28.1ZM1055.8,371.5c-10.1,0-18.3,8.2-18.3,18.3s8.2,18.3,18.3,18.3,18.3-8.2,18.3-18.3-8.2-18.3-18.3-18.3Z"/>
      </g>
      <g>
        <circle class="cls-10" cx="488" cy="981.1" r="23.2"/>
        <path class="cls-1" d="M488,1009.2c-15.5,0-28.1-12.6-28.1-28.1s12.6-28.1,28.1-28.1,28.1,12.6,28.1,28.1c0,15.5-12.6,28.1-28.1,28.1ZM488,962.8c-10.1,0-18.3,8.2-18.3,18.3s8.2,18.3,18.3,18.3,18.3-8.2,18.3-18.3c0-10.1-8.2-18.3-18.3-18.3Z"/>
      </g>
    </g>
  </g>
</svg>
